Coordinates
version=1
nRows=8
nColumns=40
inDegrees=yes

Units are S.I. units (second, meters, Newtons, ...)
If the header above contains a line with 'inDegrees', this indicates whether rotational values are in degrees (yes) or radians (no).

endheader
time	pelvis_tilt	pelvis_list	pelvis_rotation	pelvis_tx	pelvis_ty	pelvis_tz	hip_flexion_r	hip_adduction_r	hip_rotation_r	knee_angle_r	knee_angle_r_beta	ankle_angle_r	subtalar_angle_r	mtp_angle_r	hip_flexion_l	hip_adduction_l	hip_rotation_l	knee_angle_l	knee_angle_l_beta	ankle_angle_l	subtalar_angle_l	mtp_angle_l	lumbar_extension	lumbar_bending	lumbar_rotation	arm_flex_r	arm_add_r	arm_rot_r	elbow_flex_r	pro_sup_r	wrist_flex_r	wrist_dev_r	arm_flex_l	arm_add_l	arm_rot_l	elbow_flex_l	pro_sup_l	wrist_flex_l	wrist_dev_l
      6.04999999999999982236	     29.58786149029310763581	      6.33579474951386778514	   -176.61008865571437809194	      0.31850956078114961434	      0.84534772930129520319	     -0.61339792213233856888	     46.12754902713972882111	     -4.24358291092531914046	    -20.29204954432661267560	     17.22507870005950536552	      0.30063433723118315744	      2.55001593071367338439	      0.00000000000000000000	      0.00000000000000000000	     51.11420633407060165609	     -9.47745548851705343907	     -0.02382606142233635593	     20.94375325251131769733	      0.36553745198159387497	      0.99940614676489092361	      0.00000000000000000000	      0.00000000000000000000	     13.10711281631792601843	     10.62388119788587026449	     -3.37192042400207103725	     22.90199580590138950242	    -14.20143435882762794620	     61.45912451931423703400	      4.18077455750196680384	     87.87486884245635110346	      0.00000000000000000000	      0.00000000000000000000	     12.82363441417213500984	     -7.38474880416605561351	     78.83893500883911542587	      0.93459256483279806726	      4.38802083209889648430	      0.00000000000000000000	      0.00000000000000000000
      6.05499999999999971578	     29.76580948428735240441	      6.38846402701192328522	   -176.59736672640170240811	      0.31699671524996714256	      0.84530096227731732483	     -0.61306889253378404891	     46.10351608821864743959	     -4.20930335269119826336	    -20.38737885825739937218	     17.04247376184698836710	      0.29744727982897395391	      2.59842590941768225576	      0.00000000000000000000	      0.00000000000000000000	     51.07958285505510076518	     -9.46846179558386680242	      0.06277275452958097635	     20.75597612957428594882	      0.36226012292642051360	      1.10692679615894373768	      0.00000000000000000000	      0.00000000000000000000	     13.79112435330343799933	     10.63002351928932398550	     -3.65954501911108565082	     22.57761717895696307323	    -14.18067739341824484711	     60.35318901120355405965	      4.29033366160583007343	     87.93298549660406138173	      0.00000000000000000000	      0.00000000000000000000	     12.42152435269575327936	     -7.23770916167472577740	     77.62495080784964329723	      0.93523360231745789051	      4.22233565030353918957	      0.00000000000000000000	      0.00000000000000000000
      6.05999999999999960920	     29.85645921502149846560	      6.38153568668521309348	   -176.56600436791805464054	      0.31541555312513064324	      0.84533325165948303148	     -0.61266413508600181537	     45.94091921643056508628	     -4.19975054026381933170	    -20.32551015473962863211	     16.76224255678848606976	      0.29255632263387165715	      2.68112937366487047441	      0.00000000000000000000	      0.00000000000000000000	     50.96176486801636684731	     -9.41356456571502953068	      0.02521201462198752533	     20.60370408323663227179	      0.35960247435907904956	      1.22035748148532552371	      0.00000000000000000000	      0.00000000000000000000	     14.35325826178253194598	     10.58517625701367315116	     -4.02011890775553748512	     22.33835386080969342970	    -14.12298243614620929520	     59.58665922072082565819	      4.34692535219490405751	     88.00035055206579670539	      0.00000000000000000000	      0.00000000000000000000	     12.09658672318370875587	     -7.04095679033314514328	     75.29313785863617169980	      0.92059038278543614542	      4.71789743783028381330	      0.00000000000000000000	      0.00000000000000000000
      6.06500000000000039080	     29.89948858016467525545	      6.72693422015645481338	   -176.45511760346877849770	      0.31380036883940759518	      0.84536170401857402279	     -0.61239147217178035998	     45.69236964018239888219	     -3.94993732871834479781	    -20.65039819673871335226	     16.45068786749918743340	      0.28711866750574549512	      2.68041459889703670427	      0.00000000000000000000	      0.00000000000000000000	     50.95924943044879995568	     -9.58721499938263832519	      0.34377729107013677012	     20.58663795358309656081	      0.35930461420605264156	      1.45852748615941396615	      0.00000000000000000000	      0.00000000000000000000	     14.90324245679476788951	     10.89133893607766268019	     -4.55852352509074520981	     22.14901570891656490403	    -14.10442046889595957282	     59.06481351329300366615	      4.37588176014579488537	     88.11268668636056133892	      0.00000000000000000000	      0.00000000000000000000	     11.82364561356887122656	     -6.84269774951490905579	     72.77917331792426125503	      0.93495269778954148698	      5.47645561753258824922	      0.00000000000000000000	      0.00000000000000000000
      6.07000000000000028422	     30.35011006942736244696	      6.40777293477770459873	   -176.83523308485945335633	      0.31286884773293754947	      0.84475507675057093238	     -0.61252570294864328027	     46.27222848184280223904	     -4.05250868418787479897	    -20.30147519639566056071	     16.75963843679719644797	      0.29251087216590665463	      2.82488167739560713798	      0.00000000000000000000	      0.00000000000000000000	     51.17786506503400545398	     -9.60531198771772132261	     -0.33878685622728021976	     20.54350876313444729249	      0.35855186782900400067	      1.55794433484021044301	      0.00000000000000000000	      0.00000000000000000000	     15.72500939286207710666	     10.58411130893654750196	     -4.38208192328215684341	     21.79723050515472237976	    -14.19083810580029059167	     58.15284153647823472966	      4.69230016133981386872	     88.07439000366268544440	      0.00000000000000000000	      0.00000000000000000000	     11.44300760643012893070	     -6.75129029842723404897	     71.94769272215316391339	      0.95259993725372915652	      4.42772865436479534651	      0.00000000000000000000	      0.00000000000000000000
      6.07500000000000017764	     30.54179582163021677843	      6.08138603627138962793	   -176.97568929343776744645	      0.31158468826529550633	      0.84462901891400832266	     -0.61218748722581584065	     46.41882842023902355777	     -4.27195440025657280358	    -19.98439960866052444999	     16.81039877987627306766	      0.29339680728207845339	      2.94964889776118344145	      0.00000000000000000000	      0.00000000000000000000	     51.02930491620420383470	     -9.40220850409612296517	     -0.59050489499319991360	     20.28153948113755689064	      0.35397964131907277974	      1.65666267242459763764	      0.00000000000000000000	      0.00000000000000000000	     16.26296614462054535011	     10.30808369600157270440	     -4.55516519039697076465	     21.65660525127906055332	    -14.04595074409555977013	     57.38934560533485296219	      4.66216794873614315264	     88.09082040932572965630	      0.00000000000000000000	      0.00000000000000000000	     11.01922034527043159358	     -6.72278908808398600883	     70.96631044899403661930	      0.96129559470477365934	      4.27614971975005797589	      0.00000000000000000000	      0.00000000000000000000
      6.08000000000000007105	     30.63026623533675163458	      6.49737408891164669456	   -177.01931072769545494339	      0.31010142442745419755	      0.84457536335154448359	     -0.61232235256366740472	     46.20395749501084026178	     -3.81832233946066690322	    -20.13971373057572122889	     16.41829905706764947126	      0.28655337612291087446	      2.89335945404205263642	      0.00000000000000000000	      0.00000000000000000000	     51.14180734433044506204	     -9.77139534492616057548	     -0.41626386134039222719	     20.38477796376112394228	      0.35578149275561693488	      1.87474529384926102971	      0.00000000000000000000	      0.00000000000000000000	     16.78343299603117344532	     10.69888976994291773792	     -4.98518733885217724122	     21.47644124015005573369	    -14.01622069586577268296	     56.71122246235180597296	      4.74499977744821777037	     88.14394683204466218740	      0.00000000000000000000	      0.00000000000000000000	     10.84407239573716985603	     -6.42541441772737531579	     67.40138179483730596075	      0.97701883655301591247	      4.79319795543788629288	      0.00000000000000000000	      0.00000000000000000000
      6.08499999999999996447	     30.74398240316667596517	      6.67064494464383628269	   -176.89811217573389967583	      0.30882331133670704038	      0.84445521658289013356	     -0.61181567277555448658	     46.10574235409215049231	     -3.76562837842961695145	    -20.36433888333104391677	     16.21598080112300266364	      0.28302225641978417947	      2.95555478100393864693	      0.00000000000000000000	      0.00000000000000000000	     51.19304094491823065027	     -9.78040589695786444224	     -0.23139868596608642592	     20.34712931497323751273	      0.35512439987534133445	      1.97737884906019378839	      0.00000000000000000000	      0.00000000000000000000	     17.32534780249714145839	     10.82511826020205170096	     -5.49578297509440716340	     21.32043871650423128017	    -13.97249955600110027376	     55.97990110954679465749	      4.80775009549034404444	     88.19453294763809481083	      0.00000000000000000000	      0.00000000000000000000	     10.61079971634146446036	     -6.23625833960067232908	     65.10215422096450765821	      0.98429454242817160381	      5.08776211358529995010	      0.00000000000000000000	      0.00000000000000000000
